<?xml version="1.0" encoding="UTF-8"?>
<svg version="1.1" xmlns="http://www.w3.org/2000/svg" width="1727" height="1266">
<path d="M0 0 C569.91 0 1139.82 0 1727 0 C1727 417.78 1727 835.56 1727 1266 C1157.09 1266 587.18 1266 0 1266 C0 848.22 0 430.44 0 0 Z " fill="#FEFEFE" transform="translate(0,0)"/>
<path d="M0 0 C115.17 0 230.34 0 349 0 C349 7.59 349 15.18 349 23 C346.79183594 23.03738281 344.58367188 23.07476562 342.30859375 23.11328125 C340.11392603 23.15980178 337.91940874 23.21092254 335.72485352 23.26245117 C334.22690363 23.29522732 332.72884419 23.32339757 331.23071289 23.34643555 C307.87620031 23.71490218 282.84428703 28.77086108 265.890625 46.1640625 C257.77370914 55.98067441 254.82318686 67.42886673 256 80 C258.58375787 92.45245258 263.77393198 103.79180648 269.25317383 115.20678711 C270 117 270 117 270 119 C270.66 119 271.32 119 272 119 C272.42128174 119.79096069 272.42128174 119.79096069 272.85107422 120.59790039 C278.29345088 130.77061864 283.89433781 140.6605583 290.4140625 150.1796875 C293.32903038 154.44347219 296.07030795 158.81132004 298.8125 163.1875 C307.09487246 176.37318684 315.58019403 189.42278684 324.26220703 202.34863281 C328.13396486 208.14299407 331.8318236 214.04374679 335.53491211 219.94677734 C338.6578541 224.91238052 341.84746821 229.82270731 345.125 234.6875 C348.45286156 239.62954902 351.67384665 244.62316907 354.8125 249.6875 C362.74540425 262.48179405 371.00955878 275.06242634 379.40234375 287.55883789 C382.79871136 292.64167294 386.03026227 297.8193011 389.24853516 303.01611328 C392.50444344 308.25487608 395.89194729 313.3940214 399.33129883 318.51367188 C402.36644989 323.03539139 405.33213183 327.59715166 408.26513672 332.18603516 C411.8684127 337.81528659 415.52891219 343.40659103 419.1875 349 C424.28578662 356.79813401 429.32641146 364.62968052 434.3125 372.5 C438.24812717 378.71127045 442.21519279 384.89400307 446.3125 391 C449.61230346 395.91890702 452.89516295 400.84725674 456.125 405.8125 C456.51598877 406.40611328 456.90697754 406.99972656 457.30981445 407.61132812 C460 411.76872067 460 411.76872067 460 414 C460.99 414 461.98 414 463 414 C463.23847656 413.31292969 463.47695313 412.62585938 463.72265625 411.91796875 C465.24974577 408.42947985 467.28164188 405.43007458 469.4375 402.3125 C473.26788826 396.6759067 476.91382892 390.95802312 480.4375 385.125 C485.78019298 376.29745049 491.35709879 367.63779338 497 359 C502.96916174 349.85958542 508.84341297 340.67447119 514.5625 331.375 C518.71999269 324.61534002 522.97517387 317.94842063 527.41357422 311.37036133 C531.60597527 305.14090285 535.56312848 298.77284271 539.51757812 292.390625 C548.18164306 278.41853609 556.91224193 264.49634942 565.88330078 250.71923828 C569.54508336 245.08166222 573.1243625 239.39114934 576.70703125 233.703125 C577.72122673 232.09366969 578.73555412 230.4842975 579.75 228.875 C580.26755859 228.05386719 580.78511719 227.23273438 581.31835938 226.38671875 C584.65237789 221.10682326 588.02918062 215.8571567 591.4375 210.625 C596.12669109 203.42119193 600.65404476 196.12378751 605.15942383 188.80395508 C608.57912513 183.26007072 612.0653174 177.76739877 615.625 172.3125 C626.02292095 156.30964024 635.36520001 140.02807875 644 123 C644.37125 122.28013916 644.7425 121.56027832 645.125 120.81860352 C654.23279447 102.99909974 659.91285319 82.76555531 654.09375 62.9375 C648.17777711 47.04888711 637.91889007 37.67704845 623 30 C607.81219364 23.73526225 591.16798423 23.66902004 575 23 C575 15.41 575 7.82 575 0 C668.72 0 762.44 0 859 0 C859 7.59 859 15.18 859 23 C853.4621875 23.061875 853.4621875 23.061875 847.8125 23.125 C834.57081814 23.48401651 822.35659446 26.1435658 810.109375 31.19140625 C808 32 808 32 805 32 C805 32.66 805 33.32 805 34 C804.48695312 34.17273438 803.97390625 34.34546875 803.4453125 34.5234375 C789.44481524 39.66166713 776.53839099 47.63431602 765 57 C764.04480469 57.76441406 763.08960938 58.52882812 762.10546875 59.31640625 C759.38130524 61.51884214 756.68500245 63.75006739 754 66 C752.90171875 66.91072266 752.90171875 66.91072266 751.78125 67.83984375 C747.02897858 71.87013547 743.01108207 76.2435636 739 81 C738.0717839 82.06768722 737.14196703 83.13398396 736.2109375 84.19921875 C716.1760855 107.19540901 699.8316026 133.18571599 683.73706055 159.02783203 C680.2323641 164.64814764 676.66072331 170.22325249 673.0703125 175.7890625 C669.09092577 181.96086606 665.15402609 188.15917905 661.25 194.37890625 C656.58946736 201.79527808 651.91592342 209.18726082 647 216.4375 C642.47803803 223.11404385 638.3632663 230.00960351 634.25219727 236.94458008 C631.29833726 241.90525007 628.21676268 246.67366716 624.82421875 251.34765625 C621.79833983 255.74716758 619.09274015 260.34245371 616.33007812 264.91015625 C613.11810304 270.20663761 609.82027741 275.43607713 606.4375 280.625 C602.92770031 286.01073778 599.45989102 291.41757559 596.0625 296.875 C586.8477915 311.67399079 577.50560398 326.38606947 568 341 C577.19034238 336.02749904 586.0223731 330.49523557 594.87109375 324.9453125 C603.85286498 319.32752247 612.8492466 313.8103165 622.17260742 308.77392578 C625.67642814 306.87444724 629.14008907 304.92640911 632.55664062 302.87402344 C644.11838234 295.93890142 655.97519916 289.71568475 668 283.625 C670.00855327 282.60402033 672.01709812 281.58302409 674.02563477 280.56201172 C693.51229746 270.67279679 712.94457859 260.97023463 733.28515625 252.9375 C736.16173427 251.78949998 738.91483933 250.56340227 741.65234375 249.1171875 C748.00077652 245.85995131 754.81539994 243.59060573 761.5 241.125 C762.86994639 240.6163019 764.23973903 240.10718955 765.609375 239.59765625 C767.66986383 238.83133115 769.73066181 238.06590806 771.79260254 237.30349731 C775.21823357 236.03678309 778.63961694 234.76054193 782.05273438 233.46044922 C791.12555626 230.00921569 800.25583159 226.83577492 809.5 223.875 C810.50782532 223.55000519 810.50782532 223.55000519 811.53601074 223.21844482 C820.1221578 220.4536433 828.69514739 217.83431002 837.515625 215.9140625 C840.5375319 215.12132011 843.33339596 214.16444141 846.25390625 213.0703125 C851.66331435 211.0666582 857.07503946 209.56576446 862.6875 208.25 C864.23606689 207.88201294 864.23606689 207.88201294 865.81591797 207.5065918 C880.49780083 204.0944271 895.30668911 201.23919919 910.10011292 198.35749817 C913.71602997 197.65249262 917.32795241 196.93762466 920.93066406 196.16772461 C929.67505771 194.32445276 938.37150275 193.10898586 947.24902344 192.17456055 C949.47153175 191.94049812 951.69280018 191.69674968 953.9140625 191.45117188 C957.78643221 191.02719134 961.66135968 190.63431236 965.53790283 190.25054932 C968.02514517 189.99744116 970.5090167 189.72028857 972.99365234 189.44287109 C989.56807966 187.69351586 1006.11266334 187.69214707 1022.75830078 187.73925781 C1026.79490572 187.75059375 1030.83124511 187.74391098 1034.86784077 187.73237514 C1098.62506236 187.57806796 1098.62506236 187.57806796 1128.10327148 195.29272461 C1131.57138496 196.13951136 1135.02784795 196.67590471 1138.55932617 197.17822266 C1151.30967454 198.99920517 1163.70935819 201.98675208 1176.1875 205.125 C1177.08142456 205.34882355 1177.97534912 205.57264709 1178.8963623 205.80325317 C1181.46749605 206.44928463 1184.03686614 207.10179581 1186.60546875 207.7578125 C1187.37849838 207.95355362 1188.15152802 208.14929474 1188.94798279 208.35096741 C1192.76837802 209.33941444 1196.34175787 210.50679462 1200 212 C1202.33146806 212.67316087 1204.66493982 213.33940719 1207 214 C1211.33478045 215.45446566 1215.64103955 216.98848186 1219.94873047 218.52099609 C1221.96580188 219.23784628 1223.98474241 219.94922482 1226.00390625 220.66015625 C1249.27183436 228.89134572 1249.27183436 228.89134572 1259.18701172 234.07421875 C1261.95275317 235.48651225 1264.80110884 236.69871208 1267.64599609 237.94165039 C1290.78780427 248.07700485 1312.68351009 260.49032847 1334 274 C1330.5252631 275.15824563 1329.00085545 274.79629751 1325.44921875 274.07421875 C1324.35802734 273.85443359 1323.26683594 273.63464844 1322.14257812 273.40820312 C1321.00240234 273.17037109 1319.86222656 272.93253906 1318.6875 272.6875 C1317.55892578 272.46126953 1316.43035156 272.23503906 1315.26757812 272.00195312 C1310.0378918 270.93385356 1305.0593361 269.70961898 1300 268 C1296.64799018 267.14377626 1293.26210003 266.45351635 1289.875 265.75 C1288.84511963 265.53601563 1287.81523926 265.32203125 1286.75415039 265.1015625 C1272.73361044 262.25844332 1258.60748155 260.01065526 1244.48730469 257.72753906 C1240.9258912 257.15141399 1237.36598716 256.56667002 1233.80674744 255.97727966 C1219.13026122 253.54767707 1204.44722578 251.29232314 1189.69946289 249.34326172 C1184.74204221 248.68342109 1179.82695644 247.99025772 1174.921875 247.01171875 C1138.24468011 240.16853768 1099.44995197 240.70443454 1062.25323868 240.68903351 C1059.97369538 240.68752397 1057.69417926 240.68262521 1055.41464233 240.67718506 C1026.07316534 240.62463835 996.34918442 241.52525137 967.53149414 247.50878906 C963.97358102 248.19916626 960.39575338 248.68751099 956.80737305 249.19091797 C930.95111077 252.861958 904.88592533 258.02150477 880 266 C878.50153285 266.47628823 877.00299112 266.95234184 875.50439453 267.42822266 C870.22813271 269.10655509 864.95683119 270.80004377 859.6875 272.5 C858.40555756 272.91310928 858.40555756 272.91310928 857.09771729 273.33456421 C842.01343302 278.2096752 827.21805732 283.35108539 812.89453125 290.1875 C808.56522523 292.22956211 804.16945099 294.10009458 799.75 295.9375 C799.02240479 296.24421631 798.29480957 296.55093262 797.54516602 296.86694336 C794.54578197 298.10102235 792.27571358 299 789 299 C789 299.66 789 300.32 789 301 C788.27224365 301.3309668 787.5444873 301.66193359 786.79467773 302.00292969 C770.26817738 309.54055977 754.0030827 317.392831 738 326 C736.54062012 326.78020508 736.54062012 326.78020508 735.05175781 327.57617188 C720.95854738 335.1135144 720.95854738 335.1135144 707.359375 343.4921875 C703.93824406 345.67853939 700.37262852 347.56518526 696.796875 349.484375 C686.96258388 354.81357186 677.50348354 360.75865671 668.04248047 366.71484375 C664.80282901 368.75327613 661.55793053 370.78328553 658.3125 372.8125 C657.66861328 373.21557373 657.02472656 373.61864746 656.36132812 374.03393555 C652.49811681 376.44937938 648.62585123 378.84949625 644.74609375 381.23828125 C636.42049677 386.36635021 628.11871271 391.49209426 620.01953125 396.97265625 C616.18661728 399.54611337 612.31467679 402.05639518 608.4375 404.5625 C607.76493164 404.99771973 607.09236328 405.43293945 606.39941406 405.88134766 C602.5941649 408.33909525 598.77637745 410.77573139 594.94921875 413.19921875 C588.40991045 417.35648376 581.93825151 421.61500663 575.46536255 425.87457275 C571.91186199 428.21272289 568.35643169 430.54793342 564.80078125 432.8828125 C564.11134933 433.33554535 563.42191742 433.7882782 562.71159363 434.25473022 C555.16545008 439.20773044 547.589307 444.11346556 540 449 C537.12401173 450.85263872 534.2489872 452.70675849 531.375 454.5625 C530.66666016 455.01963379 529.95832031 455.47676758 529.22851562 455.94775391 C525.25722642 458.5173577 521.31358472 461.12292754 517.39160156 463.76708984 C510.64900493 468.31195277 503.79013201 472.61316086 496.83447266 476.82421875 C488.07289843 482.14127893 479.49739376 487.73933863 470.92773438 493.35888672 C461.08423933 499.8119995 451.11323359 505.99398263 441 512.015625 C436.1669003 514.89372086 431.36019231 517.81333606 426.5625 520.75 C425.81057373 521.20979248 425.05864746 521.66958496 424.28393555 522.14331055 C421.12672361 524.07614795 417.97449014 526.01588469 414.83203125 527.97265625 C406.62465195 533.0792291 398.28331924 537.94136935 389.92504883 542.79614258 C384.44079853 545.98366851 378.98010177 549.20072374 373.5625 552.5 C363.82536881 558.40686531 353.82269855 563.85991397 343.87304688 569.39746094 C340.79920949 571.1119977 337.73349615 572.84033428 334.67041016 574.57397461 C320.26389893 582.72378155 305.71824412 590.62265895 291.04370117 598.27880859 C286.16206704 600.83432235 281.33250874 603.46961113 276.52148438 606.15551758 C266.93326852 611.50571975 257.20180533 616.35799284 247.2265625 620.94213867 C244.90742595 622.04398282 242.64272415 623.22897278 240.3671875 624.41796875 C233.88964527 627.67734512 227.07220521 630.01944908 220.25 632.4375 C217.69078061 633.34756724 215.13333215 634.26231902 212.578125 635.18359375 C211.94664047 635.41122406 211.31515594 635.63885437 210.66453552 635.87338257 C206.30686603 637.46647452 202.05278516 639.23665543 197.80078125 641.09765625 C191.61275601 643.79452045 185.38144593 646.00260683 178.9375 648 C177.87112305 648.33612305 176.80474609 648.67224609 175.70605469 649.01855469 C167.03523506 651.7302782 158.31568528 654.25436923 149.56640625 656.69921875 C145.90592729 657.72707468 142.29766946 658.86862314 138.6875 660.0625 C129.55300697 662.9282233 120.07686165 664.55142054 110.70458984 666.44482422 C104.39064357 667.74089877 98.11929906 669.22697321 91.86328125 670.77734375 C84.95700743 672.4518444 78.12967443 673.58060863 71.07666016 674.43994141 C67.19965269 674.94479355 63.38582151 675.67015387 59.55078125 676.43359375 C51.2391765 678.03480211 42.91026174 679.13163783 34.5 680.0625 C33.36934616 680.18848572 33.36934616 680.18848572 32.21585083 680.3170166 C-12.34346706 685.23620063 -57.19996685 685.79399907 -101.81274414 681.21813965 C-103.98155849 681.00183921 -106.15121851 680.80285517 -108.32226562 680.61035156 C-132.47797097 678.46461691 -155.89922115 673.88656042 -179.54016113 668.55389404 C-181.88227024 668.02650979 -184.22552769 667.5046373 -186.56933594 666.98486328 C-212.10424262 661.31133862 -212.10424262 661.31133862 -224.2331543 657.25073242 C-227.91539148 656.02809317 -231.6122939 654.87226863 -235.3203125 653.73046875 C-243.49925169 651.19059611 -251.61836602 648.48787129 -259.72119141 645.71557617 C-262.02450441 644.92913322 -264.33055704 644.15109068 -266.63671875 643.37304688 C-268.13298665 642.86248925 -269.62908675 642.35143954 -271.125 641.83984375 C-271.79909912 641.61368881 -272.47319824 641.38753387 -273.16772461 641.15452576 C-277.32291593 639.72045174 -281.17084591 637.96882158 -285.07778931 635.95829773 C-287.89310571 634.55475163 -290.79398912 633.4326123 -293.73046875 632.30859375 C-295.55288086 631.60379883 -295.55288086 631.60379883 -297.41210938 630.88476562 C-299.30737476 630.1573323 -301.20323747 629.43148114 -303.09936523 628.70629883 C-304.95704143 627.99423341 -306.81253289 627.2764766 -308.66796875 626.55859375 C-309.76391357 626.13892334 -310.8598584 625.71925293 -311.98901367 625.28686523 C-314.84903233 624.06452206 -317.34947631 622.61540471 -320 621 C-321.47181457 620.36468906 -322.95983597 619.76575482 -324.4609375 619.203125 C-330.978039 616.66399455 -337.28736772 613.70332251 -343.625 610.75 C-344.81996094 610.19570313 -346.01492188 609.64140625 -347.24609375 609.0703125 C-350.16515337 607.71586884 -353.08308462 606.35905371 -356 605 C-356 604.34 -356 603.68 -356 603 C-351.72182892 603.9494716 -347.44402669 604.90042215 -343.16796875 605.859375 C-322.39114653 610.51457776 -301.58408 615.10762858 -280.6484375 618.99609375 C-279.70476318 619.17253418 -278.76108887 619.34897461 -277.78881836 619.53076172 C-275.93621045 619.87625192 -274.08288802 620.21794002 -272.22875977 620.55517578 C-268.71522541 621.20973928 -265.36329979 621.87874401 -261.96875 623.01171875 C-257.89319115 624.36845084 -253.79519337 625.05145812 -249.5625 625.75 C-248.05804321 625.99834595 -248.05804321 625.99834595 -246.52319336 626.25170898 C-195.6326132 634.35749361 -145.1897854 638.05133583 -93.6875 638.125 C-92.41538666 638.12776947 -91.14327332 638.13053894 -89.83261108 638.13339233 C-66.5509346 638.17035303 -43.2871022 637.92223969 -20.125 635.375 C-19.35481537 635.2927417 -18.58463074 635.2104834 -17.79110718 635.12573242 C-4.07137826 633.64725587 9.56077339 631.66517917 23.1875 629.5 C24.09377136 629.35665222 25.00004272 629.21330444 25.93377686 629.06561279 C41.78603328 626.53827411 57.54629542 623.72707985 72.9375 619.11328125 C77.1722515 617.90257105 81.46461743 616.9853343 85.76513672 616.04077148 C109.32747151 610.8366811 131.98826042 603.09506129 154.75 595.1875 C155.69100555 594.86121613 156.63201111 594.53493225 157.60153198 594.19876099 C160.31422637 593.25590769 163.0246811 592.30690688 165.734375 591.35546875 C166.53643875 591.07655792 167.3385025 590.79764709 168.16487122 590.51028442 C172.88171415 588.84350715 177.44886629 586.96913984 182.00445557 584.90229797 C184.35387458 583.83999338 186.73128395 582.86413142 189.125 581.90625 C203.34951277 576.10912251 217.19495039 569.66445186 231 562.9375 C231.85851562 562.52097168 232.71703125 562.10444336 233.6015625 561.67529297 C244.95005173 556.15938928 256.06309374 550.32379656 267.04142761 544.10401917 C270.13939831 542.35773751 273.25863544 540.65071034 276.375 538.9375 C294.66638607 528.72124089 312.54472375 517.577378 330 506 C331.04414062 505.3090625 332.08828125 504.618125 333.1640625 503.90625 C336.11423058 501.94466067 339.05750104 499.97307101 342 498 C344.49904719 496.33190321 346.9995624 494.66601163 349.5 493 C350.76174368 492.15889156 352.02346265 491.31774606 353.28515625 490.4765625 C361.14257812 485.23828125 361.14257812 485.23828125 369 480 C367.6082409 476.14482731 365.81000827 473.00480718 363.5 469.625 C362.78972656 468.57699219 362.07945312 467.52898437 361.34765625 466.44921875 C360.77748779 465.61269775 360.77748779 465.61269775 360.19580078 464.75927734 C358.09186832 461.6639451 356.01539331 458.55034402 353.9375 455.4375 C353.55078125 454.8614502 353.1640625 454.28540039 352.765625 453.69189453 C349.71306757 449.12700279 346.76504818 444.49926428 343.82299805 439.86254883 C340.89338506 435.2623463 337.9176752 430.69255512 334.9375 426.125 C333.97239502 424.64495483 333.97239502 424.64495483 332.98779297 423.13500977 C327.98744889 415.48063691 322.9247824 407.8693406 317.84057617 400.27050781 C314.76407982 395.66644103 311.72471965 391.04542559 308.75 386.375 C304.79218423 380.170261 300.70585232 374.05462644 296.61096191 367.93988037 C289.4454699 357.23934769 282.41187933 346.46943768 275.49804688 335.60375977 C271.48393925 329.30000759 267.41122278 323.04408896 263.23901367 316.84399414 C260.36238272 312.56578511 257.58432376 308.23407355 254.86328125 303.85546875 C253.20462054 301.3135799 251.48341063 298.84046619 249.73046875 296.36328125 C245.34078084 290.12182947 241.30449668 283.67279158 237.25 277.2109375 C233.84463297 271.81403885 230.31134174 266.54844715 226.625 261.33984375 C224.2855664 257.97128431 222.13682703 254.49918628 220 251 C217.27309984 246.58266852 214.52423908 242.22252248 211.5 238 C208.47559559 233.77724668 205.72955694 229.41586409 203 225 C199.77783635 219.79016527 196.45533026 214.71334894 192.89453125 209.7265625 C188.92270414 204.0104072 185.21531207 198.11478755 181.45263672 192.25976562 C179.07791195 188.56557193 176.69634441 184.87581397 174.3125 181.1875 C173.85133789 180.47392334 173.39017578 179.76034668 172.91503906 179.02514648 C169.6760982 174.02240872 166.38070742 169.05992639 163.0625 164.109375 C160.67525613 160.51042402 158.33712555 156.8815991 156 153.25 C149.44116144 143.06965925 142.70321135 133.00890955 135.9675293 122.94506836 C134.59856835 120.89595856 133.23310278 118.84451104 131.87036133 116.79125977 C130.82464966 115.21622681 130.82464966 115.21622681 129.7578125 113.609375 C129.13148926 112.66416992 128.50516602 111.71896484 127.85986328 110.74511719 C125.35220532 107.04386934 122.71384938 103.4466559 120.0625 99.84765625 C118.22746722 97.31405985 116.45116296 94.74834465 114.69287109 92.16113281 C110.78172566 86.41352298 106.64848404 80.93828139 102.16796875 75.6171875 C100.77053644 73.93019714 99.41467579 72.20744921 98.11328125 70.4453125 C81.96973251 48.71751735 44.40185468 28.41483159 18 24 C12.00735225 23.41870934 6.01790841 23.22795108 0 23 C0 15.41 0 7.82 0 0 Z " fill="#4DAB24" transform="translate(366,195)"/>
<path d="M0 0 C2.25325421 0.00502488 4.50650951 0.00958604 6.75976562 0.01367188 C12.23570106 0.02459953 17.71159536 0.04125932 23.1875 0.0625 C23.1875 0.7225 23.1875 1.3825 23.1875 2.0625 C17.77665964 3.82039975 12.38465633 5.26849597 6.8046875 6.38671875 C-1.11075062 8.05884077 -8.81312026 10.26210997 -16.5625 12.5625 C-17.90741737 12.95749024 -19.25246926 13.35202274 -20.59765625 13.74609375 C-23.18190358 14.50406775 -25.76414301 15.26798826 -28.34570312 16.03515625 C-30.44075307 16.65599922 -32.53786117 17.2700325 -34.63867188 17.87109375 C-38.57655427 19.00849928 -42.38868456 20.25154732 -46.1796875 21.8125 C-51.14447483 23.85351456 -56.18603081 25.6224333 -61.2578125 27.375 C-62.11816101 27.672854 -62.97850952 27.97070801 -63.8649292 28.27758789 C-67.46473331 29.52207907 -71.06556811 30.76348957 -74.66845703 31.99902344 C-77.32494561 32.91115949 -79.97899146 33.83013657 -82.6328125 34.75 C-83.43510284 35.02303955 -84.23739319 35.2960791 -85.06399536 35.57739258 C-89.54264537 37.1349796 -93.73215708 38.93768396 -97.94277954 41.11630249 C-100.71262434 42.51802018 -103.56753525 43.6712094 -106.4453125 44.83203125 C-107.66476562 45.32896484 -108.88421875 45.82589844 -110.140625 46.33789062 C-112.02814863 47.10305694 -113.9163424 47.86648111 -115.80566406 48.62719727 C-123.90420865 51.89448975 -131.74497925 55.44133201 -139.52539062 59.40844727 C-144.28262636 61.80225832 -149.13796838 63.9547991 -154 66.125 C-172.39981606 74.45434737 -190.45637478 83.72314581 -207.8125 94.0625 C-208.39290039 94.40555176 -208.97330078 94.74860352 -209.57128906 95.10205078 C-222.07103412 102.49127474 -234.61213213 109.92384828 -246.42578125 118.37890625 C-248.99530504 120.19145085 -251.61648564 121.90685891 -254.25 123.625 C-272.54413376 135.77418114 -290.01523356 149.41441967 -306.99804688 163.32397461 C-311.28843925 166.83675994 -315.62381627 170.28237919 -320 173.6875 C-324.52615557 177.2144241 -328.95254968 180.83218828 -333.3125 184.5625 C-338.23138265 188.7710263 -343.25491555 192.81332379 -348.36230469 196.7902832 C-352.97528397 200.38771854 -357.52768177 204.05462713 -362.0625 207.75 C-362.73531006 208.2972876 -363.40812012 208.8445752 -364.10131836 209.40844727 C-367.06524696 211.82035373 -370.02532427 214.23664533 -372.9765625 216.6640625 C-373.87117188 217.39367187 -374.76578125 218.12328125 -375.6875 218.875 C-376.44804688 219.50019531 -377.20859375 220.12539063 -377.9921875 220.76953125 C-379.8125 222.0625 -379.8125 222.0625 -381.8125 222.0625 C-381.72754698 234.62517962 -381.63245924 247.18773979 -381.52497292 259.75024796 C-381.47535193 265.58559108 -381.42902343 271.42091903 -381.390625 277.25634766 C-381.35333451 282.90396387 -381.30686599 288.55144124 -381.25443649 294.19893646 C-381.23612189 296.33709998 -381.22093269 298.47529298 -381.20915604 300.6135025 C-381.13558476 313.52794873 -380.51830324 326.19941463 -379.04045105 339.03069687 C-378.57346713 343.19307908 -378.25541659 347.36854205 -377.91796875 351.54296875 C-376.01410791 375.19526918 -376.01410791 375.19526918 -372.375 398.625 C-372.19412842 399.56690186 -372.01325684 400.50880371 -371.8269043 401.47924805 C-369.0136756 414.48818329 -362.90272682 422.6204887 -352.1875 430.1875 C-326.90332056 446.46635526 -294.67881345 444.47084956 -265.8125 445.0625 C-265.8125 452.3225 -265.8125 459.5825 -265.8125 467.0625 C-379.9925 467.0625 -494.1725 467.0625 -611.8125 467.0625 C-611.8125 459.8025 -611.8125 452.5425 -611.8125 445.0625 C-609.275625 445.03671875 -606.73875 445.0109375 -604.125 444.984375 C-556.91385578 444.77394818 -556.91385578 444.77394818 -517.3359375 421.55859375 C-513.6672384 417.59827268 -513.6672384 417.59827268 -510.8125 413.0625 C-510.1525 413.0625 -509.4925 413.0625 -508.8125 413.0625 C-508.68875 411.825 -508.565 410.5875 -508.4375 409.3125 C-508.20683156 407.00581559 -507.96245543 405.34382134 -506.8671875 403.2890625 C-505.33641445 400.05743051 -504.87266683 396.68939953 -504.3125 393.1875 C-504.18431885 392.39504883 -504.0561377 391.60259766 -503.92407227 390.78613281 C-502.39733975 380.92227151 -501.56517436 371.01075739 -500.8125 361.0625 C-500.72613281 359.94327148 -500.63976562 358.82404297 -500.55078125 357.67089844 C-499.06959248 338.14174646 -498.29012793 318.63747866 -497.8125 299.0625 C-503.41850177 301.25208245 -508.91014147 303.52643726 -514.3125 306.1875 C-525.50857522 311.53289458 -537.19698577 315.73283949 -548.8125 320.0625 C-549.91110352 320.4735498 -551.00970703 320.88459961 -552.14160156 321.30810547 C-565.22527307 326.18275897 -578.26834631 330.66342641 -591.8125 334.0625 C-592.93253418 334.34367676 -594.05256836 334.62485352 -595.20654297 334.91455078 C-600.21744024 336.16908041 -605.22835105 337.42294114 -610.24536133 338.65283203 C-611.9724231 339.07798096 -611.9724231 339.07798096 -613.734375 339.51171875 C-615.27496582 339.88816528 -615.27496582 339.88816528 -616.84667969 340.2722168 C-618.85014249 340.80606674 -620.8352993 341.41311188 -622.79663086 342.08544922 C-625.91252122 343.09490386 -628.91550429 343.70586619 -632.14453125 344.24609375 C-633.35689453 344.45169922 -634.56925781 344.65730469 -635.81835938 344.86914062 C-637.70264648 345.18141602 -637.70264648 345.18141602 -639.625 345.5 C-642.08991125 345.91496382 -644.55475435 346.33033264 -647.01953125 346.74609375 C-648.28531006 346.95733887 -649.55108887 347.16858398 -650.85522461 347.38623047 C-653.55582609 347.84191571 -656.25055149 348.32247469 -658.94360352 348.82080078 C-668.97289876 350.66825285 -678.98524475 351.99264144 -689.125 353.0625 C-692.01749348 353.36996849 -694.90941851 353.68206936 -697.80078125 354 C-698.52890518 354.07977585 -699.25702911 354.1595517 -700.00721741 354.241745 C-704.71198689 354.77500514 -709.38145268 355.44337643 -714.05740356 356.18644714 C-725.59438199 358.0197059 -737.09804815 358.99217462 -748.75 359.75 C-750.64002215 359.88016144 -752.52999653 360.01101858 -754.41992188 360.14257812 C-769.08600321 361.14640231 -769.08600321 361.14640231 -773.8125 361.0625 C-773.4825 360.4025 -773.1525 359.7425 -772.8125 359.0625 C-770.64550781 358.36401367 -770.64550781 358.36401367 -767.765625 357.73046875 C-766.172948 357.37287476 -766.172948 357.37287476 -764.5480957 357.00805664 C-763.39784912 356.75789795 -762.24760254 356.50773926 -761.0625 356.25 C-758.66527571 355.71133288 -756.26814132 355.17226548 -753.87109375 354.6328125 C-751.51825561 354.10925616 -749.16539256 353.58581172 -746.8125 353.0625 C-731.91308511 349.72602852 -717.3670133 345.67613135 -702.8125 341.0625 C-701.2958374 340.58441895 -701.2958374 340.58441895 -699.74853516 340.09667969 C-692.42544956 337.78582398 -685.11549584 335.43602995 -677.8125 333.0625 C-676.20616699 332.54139648 -676.20616699 332.54139648 -674.56738281 332.00976562 C-671.37610451 330.97128048 -668.18761172 329.92468026 -665 328.875 C-663.57892944 328.41202515 -663.57892944 328.41202515 -662.12915039 327.93969727 C-656.2704711 325.99608647 -650.59382695 323.76942375 -644.91235352 321.35864258 C-639.55154971 319.11712825 -634.11678119 317.06875438 -628.6875 315 C-613.58321944 309.30435587 -613.58321944 309.30435587 -598.8125 302.8125 C-594.01019914 300.53418477 -589.18281712 298.34006468 -584.30615234 296.22558594 C-575.43352684 292.36758686 -566.89283285 288.04939375 -558.3671875 283.48046875 C-554.99743278 281.67750236 -551.60133873 279.95195208 -548.16577148 278.27856445 C-528.04146653 268.4669385 -508.67852756 257.091254 -489.8125 245.0625 C-489.06323242 244.5886084 -488.31396484 244.1147168 -487.54199219 243.62646484 C-476.7181482 236.77711337 -466.21613231 229.53177448 -455.8125 222.0625 C-455.05759277 221.52302734 -454.30268555 220.98355469 -453.52490234 220.42773438 C-444.41920719 213.920116 -435.40155011 207.3309129 -426.58056641 200.44042969 C-424.58318905 198.88378818 -422.57893812 197.33623625 -420.57421875 195.7890625 C-412.49187767 189.54155586 -404.4856718 183.21527714 -396.57543945 176.7512207 C-390.61998248 171.88869886 -384.58505292 167.13315083 -378.52587891 162.40087891 C-375.63927143 160.14605101 -372.7565675 157.88626368 -369.875 155.625 C-369.2984668 155.17294189 -368.72193359 154.72088379 -368.12792969 154.25512695 C-364.50004524 151.40515047 -360.89751679 148.52563971 -357.3059082 145.63012695 C-350.20238067 139.90776354 -342.97381014 134.3828147 -335.65625 128.9375 C-332.13330105 126.31283285 -328.656797 123.63241931 -325.1875 120.9375 C-314.94862089 113.02048363 -304.34795186 105.65537013 -293.54296875 98.53515625 C-291.19192404 96.98490406 -288.86825182 95.41000754 -286.55078125 93.80859375 C-255.35835908 72.2766835 -221.10033022 55.23046549 -185.92211914 41.30737305 C-182.87063723 40.08577406 -179.84314439 38.81666314 -176.81640625 37.53515625 C-121.11406561 14.23596585 -60.44943851 -0.23531548 0 0 Z " fill="#6EBA1E" transform="translate(1233.8125,582.9375)"/>
<path d="M0 0 C12.54 0 25.08 0 38 0 C38 0.33 38 0.66 38 1 C30.31849326 1.98608339 22.67465629 2.31158744 14.9375 2.5625 C13.69033203 2.60568359 12.44316406 2.64886719 11.15820312 2.69335938 C8.10557238 2.7986225 5.05279894 2.89973337 2 3 C1.67 8.61 1.34 14.22 1 20 C114.52 20 228.04 20 345 20 C345 13.4 345 6.8 345 0 C345.33 0 345.66 0 346 0 C346 7.26 346 14.52 346 22 C231.82 22 117.64 22 0 22 C0 14.74 0 7.48 0 0 Z " fill="#A5D433" transform="translate(622,1028)"/>
<path d="M0 0 C114.51 0 229.02 0 347 0 C347 0.33 347 0.66 347 1 C346.2732456 1.00135653 345.5464912 1.00271306 344.79771394 1.00411069 C301.7592798 1.08469678 258.72087824 1.17562496 215.68249501 1.28005161 C210.51904308 1.29257103 205.35559094 1.30500372 200.19213867 1.31738281 C199.16415412 1.31984881 198.13616957 1.3223148 197.07703397 1.32485552 C180.41483088 1.36461885 163.75262098 1.39735035 147.09039804 1.42749982 C130.00344551 1.45857371 112.916522 1.49716558 95.82960206 1.54279006 C85.27937589 1.57072207 74.72917103 1.5927346 64.17891774 1.60726251 C56.9519531 1.61777496 49.72502963 1.63556568 42.49809595 1.65916704 C38.32363829 1.67258211 34.14923853 1.68270466 29.97475815 1.68421364 C26.1571179 1.68566418 22.33961731 1.69620136 18.5220199 1.71413441 C17.13705759 1.71900602 15.75207847 1.72046989 14.36710932 1.71827881 C12.49190232 1.71579803 10.61669159 1.72666235 8.74151897 1.73828697 C7.17574219 1.74170446 7.17574219 1.74170446 5.57833356 1.74519098 C2.76128037 1.81957151 2.76128037 1.81957151 0 4 C0 2.68 0 1.36 0 0 Z " fill="#016A16" transform="translate(367,196)"/>
<path d="M0 0 C93.39 0 186.78 0 283 0 C283 6.93 283 13.86 283 21 C282.01 20.67 281.02 20.34 280 20 C280.66 20 281.32 20 282 20 C282 13.73 282 7.46 282 1 C189.93 1.33 97.86 1.66 3 2 C3 8.27 3 14.54 3 21 C2.01 21 1.02 21 0 21 C0 14.07 0 7.14 0 0 Z " fill="#026D1A" transform="translate(941,196)"/>
<path d="M0 0 C-2.4124565 2.4124565 -3.42369106 2.43278549 -6.75 2.9375 C-7.82765625 3.10121094 -8.9053125 3.26492188 -10.015625 3.43359375 C-11.34364074 3.62316284 -12.67177728 3.8118866 -14 4 C-15.18625977 4.17233154 -15.18625977 4.17233154 -16.39648438 4.34814453 C-19.09673092 4.73891606 -21.79808789 5.12092221 -24.5 5.5 C-25.33370117 5.61851318 -26.16740234 5.73702637 -27.02636719 5.85913086 C-30.01464214 6.26775776 -33.00580944 6.63687694 -36 7 C-36.66755436 7.0814605 -37.33510872 7.16292101 -38.022892 7.24685001 C-51.60626008 8.86370347 -65.00246157 9.28272576 -78.671875 9.23046875 C-80.77646862 9.22927232 -82.88106279 9.22882476 -84.98565674 9.2290802 C-89.35212648 9.22753206 -93.71851228 9.2193662 -98.08496094 9.20581055 C-103.66621482 9.18869579 -109.24737817 9.18500083 -114.82865524 9.18575573 C-119.15587214 9.1854835 -123.48306947 9.17999572 -127.81027985 9.17275429 C-129.86907046 9.16958793 -131.92786327 9.167605 -133.98665619 9.16686058 C-136.85670233 9.16468247 -139.72665402 9.1559103 -142.59667969 9.14526367 C-143.43416748 9.14571686 -144.27165527 9.14617004 -145.13452148 9.14663696 C-150.17322241 9.11942939 -155.01130026 8.71771619 -160 8 C-160 7.67 -160 7.34 -160 7 C-159.08054596 7.00222061 -158.16109192 7.00444122 -157.21377563 7.00672913 C-148.42162215 7.02701532 -139.62947685 7.04211538 -130.83730507 7.05181217 C-126.32040001 7.0569654 -121.80351476 7.06391994 -117.28662109 7.07543945 C-77.8379826 7.21125677 -77.8379826 7.21125677 -38.51733398 4.32543945 C-36.13945139 4.05707735 -33.76040208 3.80201205 -31.38085938 3.54882812 C-23.44570754 2.69107023 -15.56478635 1.70053213 -7.69262695 0.36499023 C-5.09004084 0.01220519 -2.62245325 -0.06655367 0 0 Z " fill="#B5DC5C" transform="translate(384,826)"/>
<path d="M0 0 C7.67014572 0.57967662 15.17911601 1.58877961 22.75 2.9375 C24.23306641 3.19176758 24.23306641 3.19176758 25.74609375 3.45117188 C30.9489655 4.36462666 35.94107231 5.49074244 41 7 C44.78007528 7.7041968 48.52670621 8 52.375 8 C55 8 55 8 57 9 C58.423125 8.9690625 58.423125 8.9690625 59.875 8.9375 C62.95960319 8.99919206 64.41998516 9.41229856 67 11 C67.33 10.34 67.66 9.68 68 9 C68 9.66 68 10.32 68 11 C69.05960937 10.98839844 70.11921875 10.97679687 71.2109375 10.96484375 C72.59895658 10.95546524 73.98697755 10.94636511 75.375 10.9375 C76.07367188 10.92912109 76.77234375 10.92074219 77.4921875 10.91210938 C82.7734375 10.88671875 82.7734375 10.88671875 85 12 C89.44230004 12.50658579 93.91292092 12.72529035 98.375 13 C99.05675293 13.04324402 99.73850586 13.08648804 100.44091797 13.13104248 C120.60254205 14.38911016 140.80624353 14.65654977 161 15 C161 15.33 161 15.66 161 16 C132.25041306 16.34330493 103.81840376 16.16367657 75.20343018 13.22137451 C73.00230282 13.00023136 70.80027892 12.79458779 68.59716797 12.59423828 C45.32279446 10.4711428 22.77249128 6.20925714 0 1 C0 0.67 0 0.34 0 0 Z " fill="#ADD843" transform="translate(189,863)"/>
<path d="M0 0 C0 0.66 0 1.32 0 2 C-0.99 2.33 -1.98 2.66 -3 3 C4.01558615 3.5988915 10.95678743 4.13810221 18 4 C18 4.33 18 4.66 18 5 C5.98954901 6.56779331 -5.9677782 7.52192544 -18.0625 8.125 C-19.71942745 8.21173652 -21.37632876 8.29897405 -23.03320312 8.38671875 C-27.02185947 8.59688792 -31.01080159 8.80039567 -35 9 C-34.67 8.34 -34.34 7.68 -34 7 C-31.56323242 6.23803711 -31.56323242 6.23803711 -28.35546875 5.52734375 C-26.62780273 5.13772461 -26.62780273 5.13772461 -24.86523438 4.74023438 C-23.65158203 4.47533203 -22.43792969 4.21042969 -21.1875 3.9375 C-18.8059759 3.40500909 -16.42446494 2.87245946 -14.04296875 2.33984375 C-12.98102295 2.10644287 -11.91907715 1.87304199 -10.82495117 1.63256836 C-9.16609567 1.26111433 -7.51167136 0.86602481 -5.87231445 0.41625977 C-4 0 -4 0 0 0 Z " fill="#B6DC6D" transform="translate(495,935)"/>
<path d="M0 0 C1.68216214 0.00031737 3.36434441 0.01165683 5.04638672 0.03173828 C6.37390457 0.03598312 6.37390457 0.03598312 7.72824097 0.04031372 C10.56098834 0.05152838 13.39342206 0.07663508 16.22607422 0.10205078 C18.14403841 0.11207893 20.06200755 0.12120507 21.97998047 0.12939453 C26.68713298 0.15147189 31.39405038 0.18601033 36.10107422 0.22705078 C36.10107422 0.88705078 36.10107422 1.54705078 36.10107422 2.22705078 C18.76209419 7.65679401 18.76209419 7.65679401 12.10107422 7.22705078 C12.43107422 6.56705078 12.76107422 5.90705078 13.10107422 5.22705078 C16.16357422 4.60205078 16.16357422 4.60205078 19.10107422 4.22705078 C19.10107422 3.56705078 19.10107422 2.90705078 19.10107422 2.22705078 C10.85107422 2.22705078 2.60107422 2.22705078 -5.89892578 2.22705078 C-3.89892578 0.22705078 -3.89892578 0.22705078 0 0 Z " fill="#409960" transform="translate(1220.89892578125,582.77294921875)"/>
<path d="M0 0 C6.47971709 0.70431707 13.13382431 2.06691216 19 5 C19.99 4.67 20.98 4.34 22 4 C22.99 4.66 23.98 5.32 25 6 C26.9028596 6.53135407 28.82237489 7.00451822 30.75 7.4375 C35.4584679 8.55747537 39.63918668 9.91870273 44 12 C40.13112009 13.44889612 37.30879913 12.5388382 33.3984375 11.48828125 C32.76193268 11.31878464 32.12542786 11.14928802 31.46963501 10.97465515 C30.12190219 10.61345485 28.77543053 10.2475202 27.43017578 9.87719727 C25.40567099 9.32092742 23.37729385 8.78133947 21.34765625 8.24414062 C14.02734517 6.27899492 6.94610318 4.05088997 0 1 C0 0.67 0 0.34 0 0 Z " fill="#A8D63D" transform="translate(130,847)"/>
<path d="M0 0 C5.09647717 0.48796058 8.66704554 2.30638503 12.875 5.0625 C13.46796875 5.43955078 14.0609375 5.81660156 14.671875 6.20507812 C16.12027322 7.12784796 17.56096031 8.06270263 19 9 C15.74131735 10.08622755 14.60795726 9.91122669 11.33203125 9.22265625 C9.99301758 8.94711914 9.99301758 8.94711914 8.62695312 8.66601562 C7.69818359 8.46685547 6.76941406 8.26769531 5.8125 8.0625 C4.87212891 7.86720703 3.93175781 7.67191406 2.96289062 7.47070312 C0.64039546 6.98734119 -1.68036206 6.4968617 -4 6 C-3.01 5.34 -2.02 4.68 -1 4 C-0.27617533 1.94074861 -0.27617533 1.94074861 0 0 Z " fill="#5CB12D" transform="translate(1681,460)"/>
<path d="M0 0 C0.66 0.33 1.32 0.66 2 1 C-5.88714288 5.63626833 -13.62792984 9.18343109 -22.34936523 11.95751953 C-26.02824284 13.15652938 -28.35730513 14.20957685 -31 17 C-32.32 17 -33.64 17 -35 17 C-35.66 17.66 -36.32 18.32 -37 19 C-37 18.34 -37 17.68 -37 17 C-37.99 16.67 -38.98 16.34 -40 16 C-39.09378906 15.68546875 -38.18757812 15.3709375 -37.25390625 15.046875 C-31.2844163 12.94965737 -25.38860541 10.82075362 -19.6328125 8.18359375 C-15.79996311 6.46051754 -11.93594138 4.81694188 -8.0625 3.1875 C-7.30348389 2.86088379 -6.54446777 2.53426758 -5.76245117 2.19775391 C-3.8656792 1.40499007 -1.93462916 0.69529018 0 0 Z " fill="#A4D440" transform="translate(567,772)"/>
<path d="M0 0 C-0.33 0.66 -0.66 1.32 -1 2 C-3.50999378 2.73891805 -5.96379793 3.35426829 -8.515625 3.91015625 C-9.28243591 4.08252304 -10.04924683 4.25488983 -10.83929443 4.43247986 C-12.47266162 4.79715161 -14.10699898 5.15750002 -15.7421875 5.51391602 C-18.20098391 6.05177773 -20.65513961 6.6077614 -23.109375 7.16601562 C-32.09335176 9.1716244 -40.77635163 10.66086496 -50 11 C-50 10.67 -50 10.34 -50 10 C-49.34217529 9.87471924 -48.68435059 9.74943848 -48.0065918 9.62036133 C-35.90216239 7.29926672 -23.86596385 4.94535798 -12.01635742 1.5246582 C-7.89670822 0.36383177 -4.28165948 -0.23599698 0 0 Z " fill="#9ACF22" transform="translate(449,813)"/>
<path d="M0 0 C0 0.66 0 1.32 0 2 C-0.98613281 2.42152344 -1.97226563 2.84304688 -2.98828125 3.27734375 C-7.06158451 5.02333807 -11.12602841 6.78918142 -15.1875 8.5625 C-15.88552734 8.86607422 -16.58355469 9.16964844 -17.30273438 9.48242188 C-21.61031924 11.36366017 -25.79013257 13.3564535 -29.9375 15.5625 C-32.70343312 16.86079514 -34.99681937 17.55835579 -38 18 C-35.52147184 15.15901591 -32.87239531 13.79357427 -29.484375 12.1875 C-27.85435547 11.41019531 -27.85435547 11.41019531 -26.19140625 10.6171875 C-25.05574219 10.08351563 -23.92007813 9.54984375 -22.75 9 C-21.62980469 8.46632813 -20.50960937 7.93265625 -19.35546875 7.3828125 C-16.24404518 5.90608018 -13.12557359 4.44651119 -10 3 C-9.25685547 2.65582031 -8.51371094 2.31164062 -7.74804688 1.95703125 C-4.96051127 0.708356 -3.09626223 0 0 0 Z " fill="#279549" transform="translate(1039,629)"/>
<path d="M0 0 C-4.80061213 3.64184368 -10.19935017 4.13650572 -16 5 C-16 5.66 -16 6.32 -16 7 C-19.89257002 8.17774966 -23.78953635 9.34023827 -27.6875 10.5 C-29.34168945 11.00080078 -29.34168945 11.00080078 -31.02929688 11.51171875 C-32.6293457 11.98544922 -32.6293457 11.98544922 -34.26171875 12.46875 C-35.24100342 12.76201172 -36.22028809 13.05527344 -37.22924805 13.35742188 C-39.92840328 13.98339567 -42.24154205 14.12328304 -45 14 C-42.41696146 12.2779743 -40.91680563 11.55249337 -38.03515625 10.73828125 C-37.24415527 10.50955322 -36.4531543 10.2808252 -35.63818359 10.04516602 C-34.78820801 9.80338623 -33.93823242 9.56160645 -33.0625 9.3125 C-24.67934418 6.88084496 -16.45689863 4.13442952 -8.27368164 1.09692383 C-7.08246704 0.66416138 -7.08246704 0.66416138 -5.8671875 0.22265625 C-5.16706543 -0.03765381 -4.46694336 -0.29796387 -3.74560547 -0.56616211 C-2 -1 -2 -1 0 0 Z " fill="#A4D33C" transform="translate(520,792)"/>
<path d="M0 0 C11.55 0 23.1 0 35 0 C35 0.66 35 1.32 35 2 C32 3 32 3 29 2 C27.12722651 1.94044811 25.25232771 1.93920497 23.37890625 1.97265625 C22.27869141 1.98490234 21.17847656 1.99714844 20.04492188 2.00976562 C17.72715012 2.04486368 15.40943476 2.08391314 13.09179688 2.12695312 C11.99029297 2.13791016 10.88878906 2.14886719 9.75390625 2.16015625 C8.24292358 2.18541382 8.24292358 2.18541382 6.70141602 2.21118164 C4 2 4 2 0 0 Z " fill="#9BCF21" transform="translate(932,1028)"/>
<path d="M0 0 C6.72916197 0.71810002 13.26081106 2.02135343 19.875 3.4375 C21.93481547 3.87407724 23.99471055 4.31027906 26.0546875 4.74609375 C27.04436523 4.9560498 28.03404297 5.16600586 29.05371094 5.38232422 C33.36303203 6.28575332 37.68027017 7.14791024 42 8 C41.67 8.66 41.34 9.32 41 10 C39.54119891 9.85892253 38.08296449 9.71197585 36.625 9.5625 C35.40683594 9.44068359 35.40683594 9.44068359 34.1640625 9.31640625 C32 9 32 9 30 8 C29.175 8.020625 28.35 8.04125 27.5 8.0625 C25 8 25 8 23 6 C20.67263508 5.62726943 18.3376141 5.30185407 16 5 C13.16864407 4.38483633 10.36718439 3.66369001 7.5625 2.9375 C6.83095703 2.75123047 6.09941406 2.56496094 5.34570312 2.37304688 C3.56296802 1.9186242 1.78136213 1.45977534 0 1 C0 0.67 0 0.34 0 0 Z " fill="#AAD748" transform="translate(48,807)"/>
<path d="M0 0 C0.87011719 0.00451172 1.74023438 0.00902344 2.63671875 0.01367188 C4.75784293 0.0253264 6.8789311 0.04325643 9 0.0625 C9 0.3925 9 0.7225 9 1.0625 C3.66241516 1.65949676 -1.67607855 2.24722569 -7.015625 2.82641602 C-8.83165957 3.0247205 -10.6474205 3.22554792 -12.46289062 3.42895508 C-15.07353848 3.7210106 -17.68503823 4.0039576 -20.296875 4.28515625 C-21.10743347 4.37781265 -21.91799194 4.47046906 -22.75311279 4.56593323 C-26.4438168 4.95494928 -29.44181771 5.10920451 -33 4.0625 C-30.66738977 3.57957679 -28.33400412 3.10110141 -26 2.625 C-25.02740234 2.42293945 -25.02740234 2.42293945 -24.03515625 2.21679688 C-15.9554913 0.57686488 -8.23213346 -0.08219488 0 0 Z " fill="#4FB45D" transform="translate(1316,387.9375)"/>
<path d="M0 0 C0.66 0.33 1.32 0.66 2 1 C0.75312408 1.96239452 -0.49764969 2.91974009 -1.75 3.875 C-2.79414062 4.67550781 -2.79414062 4.67550781 -3.859375 5.4921875 C-5.85602012 6.89858352 -7.7932102 7.96655447 -10 9 C-10.928125 9.474375 -11.85625 9.94875 -12.8125 10.4375 C-22.47619048 15.17460317 -22.47619048 15.17460317 -26 14 C-22.33934534 11.97764579 -18.67317582 9.96580308 -15.00146484 7.96362305 C-13.75248774 7.2806344 -12.50508015 6.59476755 -11.25927734 5.90600586 C-9.47114668 4.918053 -7.67767803 3.94049479 -5.8828125 2.96484375 C-4.80402832 2.3730835 -3.72524414 1.78132324 -2.61376953 1.17163086 C-1.75122559 0.78499268 -0.88868164 0.39835449 0 0 Z " fill="#9DD036" transform="translate(635,738)"/>
<path d="M0 0 C-5.60783584 2.80391792 -11.13125817 4.71645715 -17.1875 6.25 C-17.86425781 6.42499023 -18.54101562 6.59998047 -19.23828125 6.78027344 C-23.23816281 7.75475439 -26.88831001 8.17904715 -31 8 C-27.79906063 4.79906063 -23.33842782 4.14039342 -18.91796875 3.875 C-17.2781164 3.875 -15.63843072 3.93173205 -14 4 C-14 3.34 -14 2.68 -14 2 C-12.42085985 1.46658816 -10.83645613 0.94874237 -9.25 0.4375 C-7.92742187 0.00244141 -7.92742187 0.00244141 -6.578125 -0.44140625 C-3.92165684 -1.01697435 -2.52968894 -0.89248371 0 0 Z " fill="#A8D53B" transform="translate(515,851)"/>
<path d="M0 0 C0.66 0.33 1.32 0.66 2 1 C-7.63187844 7.1209034 -17.32160744 12.86018839 -28 17 C-24.38495972 12.78896659 -19.93647372 10.52978835 -15.125 7.9375 C-14.33480469 7.50373047 -13.54460938 7.06996094 -12.73046875 6.62304688 C-10.49444227 5.40085936 -8.24887931 4.19832694 -6 3 C-4.86304688 2.38253906 -3.72609375 1.76507812 -2.5546875 1.12890625 C-1.71164062 0.75636719 -0.86859375 0.38382813 0 0 Z " fill="#249845" transform="translate(998,647)"/>
<path d="M0 0 C0.66 0.99 1.32 1.98 2 3 C1.51789062 3.60328125 1.03578125 4.2065625 0.5390625 4.828125 C-0.09257813 5.62734375 -0.72421875 6.4265625 -1.375 7.25 C-2.31472656 8.43335938 -2.31472656 8.43335938 -3.2734375 9.640625 C-4.79646566 11.7218671 -5.90885988 13.67645608 -7 16 C-7.53625 16.845625 -8.0725 17.69125 -8.625 18.5625 C-10.24566059 20.96905979 -10.24566059 20.96905979 -10 24 C-11.98 24.99 -13.96 25.98 -16 27 C-14.32090514 21.99252184 -11.4556635 17.86803564 -8.5625 13.5 C-7.58390813 12.01089436 -6.6060248 10.52132282 -5.62890625 9.03125 C-4.94465576 7.98904297 -4.94465576 7.98904297 -4.24658203 6.92578125 C-2.77362072 4.65027815 -1.36922085 2.33927901 0 0 Z " fill="#86C434" transform="translate(882,524)"/>
<path d="M0 0 C0.99 0.66 1.98 1.32 3 2 C2.5875 3.175625 2.175 4.35125 1.75 5.5625 C-0.1502395 11.20918324 -1.58292613 16.96826053 -3.03515625 22.7421875 C-4 26 -4 26 -6 29 C-6.66 29 -7.32 29 -8 29 C-8 28.34 -8 27.68 -8 27 C-7.34 27 -6.68 27 -6 27 C-5.87625 25.7625 -5.7525 24.525 -5.625 23.25 C-5.39461546 20.94615465 -5.14545271 19.27636014 -4.0625 17.21875 C-2.538681 14.03665738 -2.01293634 10.69355433 -1.375 7.25 C-1.2409375 6.55261719 -1.106875 5.85523438 -0.96875 5.13671875 C-0.64056736 3.42548068 -0.31956498 1.71286829 0 0 Z " fill="#9BD02C" transform="translate(731,969)"/>
<path d="M0 0 C9.81644377 1.66380403 18.56440565 5.76680721 27 11 C24 12 24 12 21.43359375 10.92578125 C20.44488281 10.39339844 19.45617187 9.86101563 18.4375 9.3125 C13.69575248 6.82927621 8.98004495 4.71108454 3.9609375 2.859375 C2 2 2 2 0 0 Z " fill="#A0D231" transform="translate(34,810)"/>
<path d="M0 0 C0.66 0.33 1.32 0.66 2 1 C0.21024844 2.48148332 -1.58186057 3.96011906 -3.375 5.4375 C-4.87160156 6.67306641 -4.87160156 6.67306641 -6.3984375 7.93359375 C-9 10 -9 10 -11 11 C-11.66 10.67 -12.32 10.34 -13 10 C-13 10.66 -13 11.32 -13 12 C-15.97 13.65 -18.94 15.3 -22 17 C-20.83353753 13.50061258 -20.07371488 13.10432319 -17.0703125 11.15234375 C-16.27496094 10.62962891 -15.47960937 10.10691406 -14.66015625 9.56835938 C-13.82355469 9.03017578 -12.98695313 8.49199219 -12.125 7.9375 C-11.29613281 7.39544922 -10.46726562 6.85339844 -9.61328125 6.29492188 C-8.07026885 5.2866044 -6.525073 4.28161498 -4.97705078 3.28100586 C-3.30943473 2.20049445 -1.65334239 1.10222826 0 0 Z " fill="#97CE32" transform="translate(723,683)"/>
<path d="M0 0 C0.66 0.33 1.32 0.66 2 1 C-6.30998334 7.34046546 -14.9813227 12.74214765 -24 18 C-24.33 17.34 -24.66 16.68 -25 16 C-24.36835937 15.59910156 -23.73671875 15.19820312 -23.0859375 14.78515625 C-22.19132813 14.21667969 -21.29671875 13.64820313 -20.375 13.0625 C-19.38371094 12.43472656 -18.39242187 11.80695312 -17.37109375 11.16015625 C-14.97038931 9.63152399 -12.59266488 8.07186843 -10.22265625 6.49609375 C-9.59375488 6.08157959 -8.96485352 5.66706543 -8.31689453 5.23999023 C-7.07272069 4.41910703 -5.83271758 3.59186413 -4.59716797 2.75805664 C-3.10326435 1.77740506 -1.55519699 0.88022034 0 0 Z " fill="#1E9A40" transform="translate(964,666)"/>
<path d="M0 0 C-19.48499011 9.85008089 -19.48499011 9.85008089 -25 12 C-25.99 11.67 -26.98 11.34 -28 11 C-22.72078662 7.87340705 -17.34694384 5.19694941 -11.75 2.6875 C-10.54730469 2.1296582 -10.54730469 2.1296582 -9.3203125 1.56054688 C-8.54945312 1.21443359 -7.77859375 0.86832031 -6.984375 0.51171875 C-6.29053711 0.19678467 -5.59669922 -0.11814941 -4.88183594 -0.44262695 C-3 -1 -3 -1 0 0 Z " fill="#3DA05C" transform="translate(1116,632)"/>
<path d="M0 0 C9.57 0 19.14 0 29 0 C28.67 1.32 28.34 2.64 28 4 C24.62176024 5.87679987 21.82367701 6.21849583 18 6 C18.33 5.34 18.66 4.68 19 4 C22.0625 3.375 22.0625 3.375 25 3 C25 2.34 25 1.68 25 1 C16.75 1 8.5 1 0 1 C0 0.67 0 0.34 0 0 Z " fill="#0D7A2E" transform="translate(1215,584)"/>
<path d="M0 0 C4.87731089 0.62040158 8.75789925 2.7082613 13.0625 4.9375 C13.76955078 5.29779297 14.47660156 5.65808594 15.20507812 6.02929688 C16.55478971 6.71745968 17.90333451 7.40791758 19.25048828 8.10107422 C21.1597602 9.08208723 23.07707794 10.04603088 25 11 C25 11.66 25 12.32 25 13 C19.29676416 11.37317535 14.31986097 8.66802013 9.125 5.875 C8.24585938 5.40707031 7.36671875 4.93914062 6.4609375 4.45703125 C4.30505729 3.3087907 2.15153223 2.15636097 0 1 C0 0.67 0 0.34 0 0 Z " fill="#278D46" transform="translate(400,222)"/>
<path d="M0 0 C10.45052509 0.48077476 20.66371396 1.3127774 31 3 C30.67 3.66 30.34 4.32 30 5 C29.15695313 4.91621094 28.31390625 4.83242188 27.4453125 4.74609375 C26.34960938 4.64425781 25.25390625 4.54242187 24.125 4.4375 C23.03445312 4.33308594 21.94390625 4.22867188 20.8203125 4.12109375 C18.04847977 3.77360596 18.04847977 3.77360596 16 5 C15.67 4.34 15.34 3.68 15 3 C12.45058627 2.68758629 9.99638487 2.48696579 7.4375 2.375 C6.72658203 2.33632813 6.01566406 2.29765625 5.28320312 2.2578125 C3.52257575 2.16328217 1.76132272 2.08054183 0 2 C0 1.34 0 0.68 0 0 Z " fill="#A1D231" transform="translate(147,826)"/>
<path d="M0 0 C0.66 0.33 1.32 0.66 2 1 C0.47005208 2.23697917 -1.05989583 3.47395833 -2.58984375 4.7109375 C-4.13266437 5.9666391 -4.13266437 5.9666391 -5 8 C-5.66 8 -6.32 8 -7 8 C-7 8.66 -7 9.32 -7 10 C-12.93576017 15.53104925 -12.93576017 15.53104925 -17 16 C-15.68004526 12.97955938 -14.39511535 11.23039396 -11.77734375 9.23828125 C-11.15666016 8.75939453 -10.53597656 8.28050781 -9.89648438 7.78710938 C-9.25001953 7.30048828 -8.60355469 6.81386719 -7.9375 6.3125 C-6.65470491 5.3297442 -5.3721407 4.34668693 -4.08984375 3.36328125 C-2.56037109 2.19345703 -2.56037109 2.19345703 -1 1 C-0.67 0.67 -0.34 0.34 0 0 Z " fill="#48AC3A" transform="translate(872,732)"/>
<path d="M0 0 C5.39795989 1.15058556 10.70987333 2.42421759 16 4 C15.01 4.495 15.01 4.495 14 5 C14 5.66 14 6.32 14 7 C15.32 7.66 16.64 8.32 18 9 C13.66695924 8.35534798 10.13327935 6.81074878 6.1875 4.9375 C5.02605469 4.38964844 3.86460938 3.84179688 2.66796875 3.27734375 C1.78753906 2.85582031 0.90710937 2.43429687 0 2 C0 1.34 0 0.68 0 0 Z " fill="#A8D543" transform="translate(10,798)"/>
<path d="M0 0 C-0.33 0.66 -0.66 1.32 -1 2 C-2.734375 2.5546875 -2.734375 2.5546875 -5 3 C-5.83015625 3.18820312 -6.6603125 3.37640625 -7.515625 3.5703125 C-13.39622103 4.76323341 -18.09710919 5.11375298 -24 4 C-24 3.67 -24 3.34 -24 3 C-21.1259578 2.49387936 -18.25097127 1.99493459 -15.375 1.5 C-14.56675781 1.35691406 -13.75851562 1.21382812 -12.92578125 1.06640625 C-8.56122136 0.32123749 -4.44761871 -0.17272306 0 0 Z " fill="#ABD643" transform="translate(685,1024)"/>
<path d="M0 0 C0.66 0.33 1.32 0.66 2 1 C1.01 1.66 0.02 2.32 -1 3 C-1.99 4.485 -1.99 4.485 -3 6 C-5.64453125 7.53515625 -5.64453125 7.53515625 -8.8125 9.0625 C-10.36904297 9.82240234 -10.36904297 9.82240234 -11.95703125 10.59765625 C-14.61181966 11.82110816 -17.27398555 12.94688167 -20 14 C-16.46725159 10.05109012 -12.33362504 7.45918551 -7.875 4.6875 C-7.14667969 4.22021484 -6.41835938 3.75292969 -5.66796875 3.27148438 C-4.97058594 2.83513672 -4.27320313 2.39878906 -3.5546875 1.94921875 C-2.92030762 1.55049561 -2.28592773 1.15177246 -1.63232422 0.7409668 C-0.82432373 0.37418823 -0.82432373 0.37418823 0 0 Z " fill="#9ACF35" transform="translate(696,701)"/>
<path d="M0 0 C0.33 0.66 0.66 1.32 1 2 C-0.36328125 4.8203125 -0.36328125 4.8203125 -2.3125 8.125 C-2.94800781 9.22070312 -3.58351563 10.31640625 -4.23828125 11.4453125 C-4.81964844 12.28835938 -5.40101563 13.13140625 -6 14 C-6.66 14 -7.32 14 -8 14 C-8.12375 14.5775 -8.2475 15.155 -8.375 15.75 C-9.02053903 18.07394051 -9.72724889 19.94945654 -11 22 C-11.99 22.33 -12.98 22.66 -14 23 C-12.72199484 19.55044666 -11.23881563 16.61909971 -9.1796875 13.57421875 C-8.64472656 12.77822266 -8.10976563 11.98222656 -7.55859375 11.16210938 C-7.00300781 10.34548828 -6.44742188 9.52886719 -5.875 8.6875 C-5.31167969 7.85154297 -4.74835937 7.01558594 -4.16796875 6.15429688 C-2.78279211 4.10000948 -1.39337781 2.04872962 0 0 Z " fill="#93CB3C" transform="translate(857,564)"/>
<path d="M0 0 C5.02020181 0.50202018 9.96582667 1.13815753 14.9375 2 C20.27730796 2.91852923 25.60221457 3.54620388 31 4 C31 4.33 31 4.66 31 5 C27.83351345 5.08820927 24.66734908 5.1407905 21.5 5.1875 C20.613125 5.21263672 19.72625 5.23777344 18.8125 5.26367188 C11.51137563 5.34419898 6.1811143 4.12074286 0 0 Z " fill="#ADD749" transform="translate(901,1023)"/>
<path d="M0 0 C-1.98 0.33 -3.96 0.66 -6 1 C-6 1.66 -6 2.32 -6 3 C-16.37357631 6.44419134 -16.37357631 6.44419134 -22 6 C-18.67091833 3.78061222 -15.31854136 2.57651775 -11.5625 1.3125 C-10.89412109 1.07466797 -10.22574219 0.83683594 -9.53710938 0.59179688 C-3.4625144 -1.46116337 -3.4625144 -1.46116337 0 0 Z " fill="#A2D348" transform="translate(550,920)"/>
<path d="M0 0 C2.64 0.33 5.28 0.66 8 1 C8 1.66 8 2.32 8 3 C8.69867188 3.02578125 9.39734375 3.0515625 10.1171875 3.078125 C11.02726562 3.13484375 11.93734375 3.1915625 12.875 3.25 C14.23238281 3.31960938 14.23238281 3.31960938 15.6171875 3.390625 C18 4 18 4 19.3203125 6.046875 C19.54460937 6.69140625 19.76890625 7.3359375 20 8 C15.45218513 7.38580345 11.46685365 6.21066249 7.1875 4.5625 C6.04667969 4.13066406 4.90585938 3.69882812 3.73046875 3.25390625 C1 2 1 2 0 0 Z " fill="#A2D334" transform="translate(79,829)"/>
<path d="M0 0 C0.33 0.99 0.66 1.98 1 3 C0.39671875 3.59167969 -0.2065625 4.18335938 -0.828125 4.79296875 C-5.8320919 9.71955805 -5.8320919 9.71955805 -10.375 15.0625 C-11.179375 16.0215625 -11.179375 16.0215625 -12 17 C-15 17 -15 17 -17 16 C-16.35933594 15.5153125 -15.71867188 15.030625 -15.05859375 14.53125 C-9.37842298 10.12932928 -4.50102614 5.60392659 0 0 Z " fill="#9FD12F" transform="translate(722,998)"/>
<path d="M0 0 C1.8125 0.0625 1.8125 0.0625 4 1 C5.75 4.5625 5.75 4.5625 7 8 C3.37 7.34 -0.26 6.68 -4 6 C-3.01 5.34 -2.02 4.68 -1 4 C-0.27617533 1.94074861 -0.27617533 1.94074861 0 0 Z " fill="#62B438" transform="translate(1681,460)"/>
<path d="M0 0 C0.66 0.33 1.32 0.66 2 1 C-10.48519362 8.48291572 -10.48519362 8.48291572 -17 11 C-17.66 10.34 -18.32 9.68 -19 9 C-15.88112823 7.46635461 -12.75402378 5.95031107 -9.625 4.4375 C-8.73554687 3.99986328 -7.84609375 3.56222656 -6.9296875 3.11132812 C-6.07890625 2.70205078 -5.228125 2.29277344 -4.3515625 1.87109375 C-3.56604004 1.48880615 -2.78051758 1.10651855 -1.97119141 0.71264648 C-1.32069824 0.47747314 -0.67020508 0.2422998 0 0 Z " fill="#A3D33F" transform="translate(603,755)"/>
<path d="M0 0 C1.98 0 3.96 0 6 0 C6 0.33 6 0.66 6 1 C4.02 1 2.04 1 0 1 C0 0.67 0 0.34 0 0 Z M0 1 C0 1.33 0 1.66 0 2 C-1.19238281 2.20496094 -2.38476562 2.40992188 -3.61328125 2.62109375 C-5.17970853 2.89310807 -6.74611364 3.16525015 -8.3125 3.4375 C-9.09818359 3.57220703 -9.88386719 3.70691406 -10.69335938 3.84570312 C-11.45068359 3.97783203 -12.20800781 4.10996094 -12.98828125 4.24609375 C-13.68477783 4.36654053 -14.38127441 4.4869873 -15.09887695 4.61108398 C-17.2095331 5.00335799 -17.2095331 5.00335799 -20 6 C-20.99 5.34 -21.98 4.68 -23 4 C-15.38278243 1.56897311 -7.97528341 0.83031312 0 1 Z " fill="#189C28" transform="translate(1294,391)"/>
<path d="M0 0 C3.85674376 1.4756237 5.21823735 3.47006893 7.25 7 C7.77078125 7.886875 8.2915625 8.77375 8.828125 9.6875 C10 12 10 12 10 14 C10.66 14 11.32 14 12 14 C12.33 15.98 12.66 17.96 13 20 C10.20566422 16.60863653 7.72069674 13.15238096 5.375 9.4375 C4.78460937 8.50808594 4.19421875 7.57867188 3.5859375 6.62109375 C2.27183299 4.44926093 1.08868368 2.29054734 0 0 Z " fill="#8FC92A" transform="translate(704,625)"/>
<path d="M0 0 C-3.71643906 2.67929328 -6.47519416 4.33783329 -11 5 C-13.33762223 5.65146849 -15.67190457 6.31526605 -18 7 C-15.07431091 3.71465174 -12.5764761 2.14599634 -8.4375 0.6875 C-7.48746094 0.34074219 -6.53742188 -0.00601563 -5.55859375 -0.36328125 C-3 -1 -3 -1 0 0 Z " fill="#248F46" transform="translate(1074,616)"/>
<path d="M0 0 C0.66 0.33 1.32 0.66 2 1 C-0.16956989 4.25435484 -1.38263751 4.94863542 -4.8125 6.625 C-5.66457031 7.05039062 -6.51664063 7.47578125 -7.39453125 7.9140625 C-9.94084498 8.97534468 -12.28367725 9.56109686 -15 10 C-10.47125612 6.07508864 -5.39401009 2.62540314 0 0 Z " fill="#9BCF34" transform="translate(669,718)"/>
<path d="M0 0 C0.66 0.33 1.32 0.66 2 1 C-0.78687098 2.84070559 -3.58025127 4.67128178 -6.375 6.5 C-7.1690625 7.02464844 -7.963125 7.54929687 -8.78125 8.08984375 C-9.54179688 8.58613281 -10.30234375 9.08242188 -11.0859375 9.59375 C-11.7876709 10.05458984 -12.4894043 10.51542969 -13.21240234 10.99023438 C-15 12 -15 12 -17 12 C-16 9 -16 9 -14.22265625 7.90234375 C-13.50980469 7.58394531 -12.79695312 7.26554688 -12.0625 6.9375 C-9.49112901 5.77548298 -8.02316022 5.02316022 -6 3 C-3 1.3125 -3 1.3125 0 0 Z " fill="#94CC28" transform="translate(808,704)"/>
<path d="M0 0 C0.66 0 1.32 0 2 0 C0.48922551 4.39131785 -2.91662276 6.31736792 -6.625 8.75 C-7.54152344 9.36681641 -7.54152344 9.36681641 -8.4765625 9.99609375 C-9.97895328 11.00551256 -11.48876909 12.0038647 -13 13 C-13.66 12.67 -14.32 12.34 -15 12 C-13.42040347 10.70376621 -11.83616587 9.41318673 -10.25 8.125 C-9.36828125 7.40570312 -8.4865625 6.68640625 -7.578125 5.9453125 C-5.41019762 4.30951275 -3.40599619 3.2029981 -1 2 C-0.67 1.34 -0.34 0.68 0 0 Z " fill="#179D33" transform="translate(982,701)"/>
<path d="M0 0 C0.66 0.33 1.32 0.66 2 1 C0.44066679 2.27471705 -1.12261706 3.54460214 -2.6875 4.8125 C-3.55761719 5.52019531 -4.42773438 6.22789062 -5.32421875 6.95703125 C-7.81725139 8.86047077 -10.20828279 10.56847209 -13 12 C-13.66 11.67 -14.32 11.34 -15 11 C-10.05 7.37 -5.1 3.74 0 0 Z " fill="#23A144" transform="translate(932,687)"/>
<path d="M0 0 C0.66 0.33 1.32 0.66 2 1 C0.73232923 2.29477062 -0.53926224 3.58570339 -1.8125 4.875 C-2.52019531 5.59429688 -3.22789062 6.31359375 -3.95703125 7.0546875 C-6 9 -6 9 -9 11 C-9.99 10.67 -10.98 10.34 -12 10 C-8.04 6.7 -4.08 3.4 0 0 Z " fill="#38A83B" transform="translate(886,721)"/>
<path d="M0 0 C-2.94723051 1.96482034 -5.11977826 2.7561217 -8.5 3.6875 C-9.4590625 3.95949219 -10.418125 4.23148438 -11.40625 4.51171875 C-14 5 -14 5 -17 4 C-11.06561592 0.92291196 -6.70126536 -0.48736475 0 0 Z " fill="#288D46" transform="translate(1120,601)"/>
<path d="M0 0 C0.99 0.66 1.98 1.32 3 2 C-2.28 4.97 -7.56 7.94 -13 11 C-13 10.01 -13 9.02 -13 8 C-11.21118264 6.99491199 -9.41885304 5.99607264 -7.625 5 C-6.62726562 4.443125 -5.62953125 3.88625 -4.6015625 3.3125 C-2 2 -2 2 0 2 C0 1.34 0 0.68 0 0 Z " fill="#98CE23" transform="translate(647,795)"/>
<path d="M0 0 C2.97 0 5.94 0 9 0 C9 0.66 9 1.32 9 2 C4.53763531 3.80619523 1.68965706 4.11658501 -3 3 C-2.01 2.67 -1.02 2.34 0 2 C0 1.34 0 0.68 0 0 Z " fill="#318C4C" transform="translate(1244,584)"/>
<path d="M0 0 C-2.78230428 1.85486952 -4.84363607 2.72462112 -8 3.6875 C-9.299375 4.09548828 -9.299375 4.09548828 -10.625 4.51171875 C-13 5 -13 5 -16 4 C-11.17353323 0.78235549 -5.80178176 -0.36261136 0 0 Z " fill="#A2D337" transform="translate(465,809)"/>
<path d="M0 0 C0 0.66 0 1.32 0 2 C-1.134375 2.12375 -2.26875 2.2475 -3.4375 2.375 C-5.2009375 2.684375 -5.2009375 2.684375 -7 3 C-7.33 3.66 -7.66 4.32 -8 5 C-10.31 4.67 -12.62 4.34 -15 4 C-10.22894198 1.32820751 -5.46088946 0 0 0 Z " fill="#A0D23F" transform="translate(495,935)"/>
<path d="M0 0 C1.08667969 0.19464844 2.17335938 0.38929688 3.29296875 0.58984375 C4.54013672 0.82380859 4.54013672 0.82380859 5.8125 1.0625 C5.8125 1.3925 5.8125 1.7225 5.8125 2.0625 C0.8625 2.3925 -4.0875 2.7225 -9.1875 3.0625 C-9.1875 2.0725 -9.1875 1.0825 -9.1875 0.0625 C-5.61369658 -1.12876781 -3.67866698 -0.6724445 0 0 Z " fill="#89C610" transform="translate(494.1875,937.9375)"/>
<path d="M0 0 C5.63308675 1.43823491 10.73677223 3.54144009 16 6 C12.01754349 7.3274855 9.55210457 5.99907829 5.8125 4.5625 C5.15830078 4.31951172 4.50410156 4.07652344 3.83007812 3.82617188 C2.21696714 3.2256707 0.6080565 2.61390797 -1 2 C-0.67 1.34 -0.34 0.68 0 0 Z " fill="#A9D63F" transform="translate(100,836)"/>
<path d="M0 0 C-1.55701931 4.67105792 -4.08447373 8.08705685 -7 12 C-7.33 10.68 -7.66 9.36 -8 8 C-7.34 8 -6.68 8 -6 8 C-6 6.68 -6 5.36 -6 4 C-2.66666667 0 -2.66666667 0 0 0 Z " fill="#1C9E3F" transform="translate(1052,349)"/>
<path d="M0 0 C-1.88923398 1.01241247 -3.78669944 2.00947425 -5.6875 3 C-7.27111328 3.8353125 -7.27111328 3.8353125 -8.88671875 4.6875 C-11.92226262 5.9672274 -13.76026826 6.28851043 -17 6 C-14.1237651 3.6776572 -11.36219578 2.13434158 -7.9375 0.75 C-7.08027344 0.39421875 -6.22304687 0.0384375 -5.33984375 -0.328125 C-3 -1 -3 -1 0 0 Z " fill="#128834" transform="translate(1116,632)"/>
<path d="M0 0 C0.66 0.99 1.32 1.98 2 3 C-0.64 6.3 -3.28 9.6 -6 13 C-6.33 12.34 -6.66 11.68 -7 11 C-5.56640625 8.3984375 -5.56640625 8.3984375 -3.5625 5.375 C-2.90378906 4.37210937 -2.24507812 3.36921875 -1.56640625 2.3359375 C-1.04949219 1.56507813 -0.53257812 0.79421875 0 0 Z " fill="#6FBB43" transform="translate(919,466)"/>
<path d="M0 0 C0.33 0.66 0.66 1.32 1 2 C0.07421875 4.05859375 0.07421875 4.05859375 -1.3125 6.4375 C-1.76238281 7.21996094 -2.21226562 8.00242187 -2.67578125 8.80859375 C-3.7385122 10.5672724 -4.86018251 12.29027377 -6 14 C-6.66 13.67 -7.32 13.34 -8 13 C-5.36 8.71 -2.72 4.42 0 0 Z " fill="#4EAF45" transform="translate(954,411)"/>
<path d="M0 0 C0.66 0.33 1.32 0.66 2 1 C1 3 1 3 -2 5 C-4.92824652 5.97608217 -6.95613276 6.08226668 -10 6 C-6.87511433 3.47605388 -3.68685613 1.60298093 0 0 Z " fill="#9ED133" transform="translate(582,765)"/>
<path d="M0 0 C-0.33 0.66 -0.66 1.32 -1 2 C-3.28515625 2.6328125 -3.28515625 2.6328125 -6.0625 3.125 C-6.98160156 3.29257812 -7.90070313 3.46015625 -8.84765625 3.6328125 C-9.91306641 3.81457031 -9.91306641 3.81457031 -11 4 C-10.67 3.01 -10.34 2.02 -10 1 C-6.76421296 -0.31828361 -3.44785988 -0.07836045 0 0 Z " fill="#268D48" transform="translate(1133,597)"/>
<path d="M0 0 C0.99 0.33 1.98 0.66 3 1 C-2.445 4.96 -2.445 4.96 -8 9 C-8.66 8.67 -9.32 8.34 -10 8 C-8.40629329 6.63353852 -6.79967018 5.28212834 -5.1875 3.9375 C-4.29417969 3.18339844 -3.40085937 2.42929687 -2.48046875 1.65234375 C-1.25263672 0.83443359 -1.25263672 0.83443359 0 0 Z " fill="#21A137" transform="translate(902,709)"/>
<path d="M0 0 C0 0.99 0 1.98 0 3 C-1.96875 4.60546875 -1.96875 4.60546875 -4.5 6.1875 C-5.3353125 6.71730469 -6.170625 7.24710938 -7.03125 7.79296875 C-7.6809375 8.19128906 -8.330625 8.58960938 -9 9 C-9 8.01 -9 7.02 -9 6 C-7.03125 4.39453125 -7.03125 4.39453125 -4.5 2.8125 C-3.6646875 2.28269531 -2.829375 1.75289062 -1.96875 1.20703125 C-0.99421875 0.60955078 -0.99421875 0.60955078 0 0 Z " fill="#91CA28" transform="translate(735,675)"/>
<path d="M0 0 C-1.03491649 2.82249951 -1.69915265 3.83374226 -4.375 5.3125 C-7.16653942 6.04361747 -8.30861211 5.79596365 -11 5 C-9.54462432 4.16151196 -8.08559627 3.32936066 -6.625 2.5 C-5.81289063 2.0359375 -5.00078125 1.571875 -4.1640625 1.09375 C-2 0 -2 0 0 0 Z " fill="#77BE42" transform="translate(1016,489)"/>
<path d="M0 0 C-1.55603771 3.81936528 -3.95604931 6.26044438 -7 9 C-7.66 9 -8.32 9 -9 9 C-7.45665977 5.21180126 -4.44676575 0 0 0 Z " fill="#1D8F40" transform="translate(1118,261)"/>
<path d="M0 0 C4.37702633 1.22556737 8.69677317 2.53060547 13 4 C9.95373824 4.95837449 7.90786364 5.01658162 4.8125 4.25 C4.11769531 4.09015625 3.42289063 3.9303125 2.70703125 3.765625 C2.14371094 3.51296875 1.58039063 3.2603125 1 3 C0.67 2.01 0.34 1.02 0 0 Z " fill="#A9D63E" transform="translate(161,855)"/>
<path d="M0 0 C-1 2 -1 2 -2.5625 2.625 C-6.06398181 3.16368951 -9.45806833 3.05903219 -13 3 C-8.54370064 0.02913376 -5.32064558 -0.12092376 0 0 Z " fill="#ACD84A" transform="translate(449,813)"/>
<path d="M0 0 C0.66 0.33 1.32 0.66 2 1 C0.6875 2.5 0.6875 2.5 -1 4 C-1.99 4 -2.98 4 -4 4 C-4.66 5.32 -5.32 6.64 -6 8 C-6.99 7.34 -7.98 6.68 -9 6 C-6.03 4.02 -3.06 2.04 0 0 Z " fill="#8CC745" transform="translate(952,525)"/>
<path d="M0 0 C-0.99 1.485 -0.99 1.485 -2 3 C-3.32 3 -4.64 3 -6 3 C-6.66 3.66 -7.32 4.32 -8 5 C-8 4.34 -8 3.68 -8 3 C-8.99 2.67 -9.98 2.34 -11 2 C-7.17010894 0.19769832 -4.21878192 -0.19622241 0 0 Z " fill="#9ACF27" transform="translate(538,786)"/>
<path d="M0 0 C0.66 0.33 1.32 0.66 2 1 C-0.35277269 3.72426311 -2.62496331 4.8141763 -6 6 C-6.66 5.34 -7.32 4.68 -8 4 C-6.71349294 3.30289269 -5.42059335 2.61757124 -4.125 1.9375 C-3.40570312 1.55464844 -2.68640625 1.17179688 -1.9453125 0.77734375 C-1.30335938 0.52082031 -0.66140625 0.26429688 0 0 Z " fill="#A0D14E" transform="translate(676,866)"/>
<path d="M0 0 C-1.28813342 0.83878455 -2.58063256 1.67086783 -3.875 2.5 C-4.59429688 2.9640625 -5.31359375 3.428125 -6.0546875 3.90625 C-8 5 -8 5 -10 5 C-9.67 4.01 -9.34 3.02 -9 2 C-8.34 2 -7.68 2 -7 2 C-6.67 1.34 -6.34 0.68 -6 0 C-3 -1 -3 -1 0 0 Z " fill="#81C12F" transform="translate(1084,532)"/>
<path d="M0 0 C0.66 0.33 1.32 0.66 2 1 C1.34 1.66 0.68 2.32 0 3 C-0.99 3 -1.98 3 -3 3 C-3 3.66 -3 4.32 -3 5 C-4.98 5.99 -4.98 5.99 -7 7 C-7.66 6.34 -8.32 5.68 -9 5 C-7.54735962 4.1361871 -6.0876837 3.28419546 -4.625 2.4375 C-3.40683594 1.72400391 -3.40683594 1.72400391 -2.1640625 0.99609375 C-1.44992187 0.66738281 -0.73578125 0.33867187 0 0 Z " fill="#7DC03D" transform="translate(986,505)"/>
<path d="M0 0 C1.27875 0.103125 2.5575 0.20625 3.875 0.3125 C4.95394531 0.39951172 4.95394531 0.39951172 6.0546875 0.48828125 C8 1 8 1 10 4 C6.44219804 3.39009109 3.3171411 2.4216319 0 1 C0 0.67 0 0.34 0 0 Z " fill="#A8D640" transform="translate(51,818)"/>
<path d="M0 0 C0.66 0.33 1.32 0.66 2 1 C-1.61328125 5.6875 -1.61328125 5.6875 -3 7 C-3.99 7 -4.98 7 -6 7 C-4.60667426 3.63279613 -3.0210714 2.0140476 0 0 Z " fill="#59B033" transform="translate(841,757)"/>
<path d="M0 0 C-3.6678852 1.96189209 -6.87248551 3.39301257 -11 4 C-7.64918101 0.31409911 -4.96535219 -1.77334007 0 0 Z " fill="#188D39" transform="translate(1012,643)"/>
<path d="M0 0 C-1.6232687 0.6708712 -3.24867578 1.33657029 -4.875 2 C-6.23238281 2.556875 -6.23238281 2.556875 -7.6171875 3.125 C-10 4 -10 4 -12 4 C-11.67 3.01 -11.34 2.02 -11 1 C-6.90275533 -0.54613006 -4.18142349 -1.29227216 0 0 Z " fill="#148234" transform="translate(1102,607)"/>
<path d="M0 0 C0.66 0.66 1.32 1.32 2 2 C1.34 3.32 0.68 4.64 0 6 C-0.66 6 -1.32 6 -2 6 C-2.33 6.66 -2.66 7.32 -3 8 C-2.25 2.25 -2.25 2.25 0 0 Z " fill="#1A953B" transform="translate(1013,314)"/>
<path d="M0 0 C0.99 1.32 1.98 2.64 3 4 C-0.73487777 3.5020163 -2.81237635 3.12508244 -6 1 C-4.02 0.67 -2.04 0.34 0 0 Z " fill="#ADD748" transform="translate(96,833)"/>
<path d="M0 0 C-1.12073862 0.83905565 -2.24674547 1.67107831 -3.375 2.5 C-4.00148438 2.9640625 -4.62796875 3.428125 -5.2734375 3.90625 C-7 5 -7 5 -9 5 C-9 4.01 -9 3.02 -9 2 C-3.375 -1.125 -3.375 -1.125 0 0 Z " fill="#8FC927" transform="translate(889,655)"/>
<path d="M0 0 C1.98 0.99 3.96 1.98 6 3 C5.01 4.485 5.01 4.485 4 6 C3.34 6 2.68 6 2 6 C1.34 4.02 0.68 2.04 0 0 Z " fill="#64B43F" transform="translate(1673,453)"/>
</svg>
